<svg xmlns="http://www.w3.org/2000/svg" viewBox="0 0 48 48" width="48" height="48">
  <radialGradient id="mg" cx="19.38" cy="42.04" r="44.9" gradientUnits="userSpaceOnUse">
    <stop offset="0" stop-color="#09f"/>
    <stop offset=".61" stop-color="#a033ff"/>
    <stop offset=".93" stop-color="#ff5280"/>
    <stop offset="1" stop-color="#ff7061"/>
  </radialGradient>
  <path fill="url(#mg)" d="M24 4C12.95 4 4 12.26 4 23.2c0 5.6 2.3 10.5 6.05 13.95.3.28.5.68.53 1.1l.1 3.45c.04 1.1 1.15 1.82 2.16 1.4l3.85-1.7c.35-.15.73-.18 1.1-.08 1.9.52 3.92.8 6.01.8C35.05 42.12 44 33.94 44 23.2S35.05 4 24 4z"/>
  <path fill="#fff" d="M12.2 29.1l5.77-9.16c.92-1.45 2.88-1.8 4.22-.74l4.59 3.44c.42.32 1 .31 1.42-.01l6.2-4.7c.83-.63 1.91.38 1.36 1.27l-5.77 9.16c-.92 1.45-2.88 1.8-4.22.74l-4.59-3.44c-.42-.32-1-.31-1.42.01l-6.2 4.7c-.83.63-1.91-.38-1.36-1.27z"/>
</svg>
