<svg xmlns="http://www.w3.org/2000/svg" viewBox="0 0 512 512"><path d="M120 188.2c-48 0-80 67.2-80 123.8 0 36.8 14.4 64.8 44 64.8 27.2 0 44-16 68.8-60.8l24-44 24 44c24.8 44.8 41.6 60.8 68.8 60.8 29.6 0 44-28 44-64.8 0-56.6-32-123.8-80-123.8-24 0-41.6 16.8-57.6 48.8l-.8 1.6-.8-1.6c-16-32-33.6-48.8-55.4-48.8z" fill="#0081FB"/><path d="M392 188.2c-48 0-80 67.2-80 123.8 0 36.8 14.4 64.8 44 64.8 27.2 0 44-16 68.8-60.8l24-44 24 44c24.8 44.8 41.6 60.8 68.8 60.8" fill="none"/><path d="M120 188.2c-48 0-80 67.2-80 123.8 0 36.8 14.4 64.8 44 64.8 27.2 0 44-16 68.8-60.8 13.6-24.4 24.8-49.2 36.4-73.2 14.4-29.6 36.8-54.6 66.8-54.6 44.8 0 74.4 30.4 90.4 67.2 18.4 42 25.6 93.6 25.6 128.6h56c0-47.2-10-106.4-35.6-156.8C366 172.2 326 140.2 276 140.2c-36 0-63.2 17.6-82.4 44-16 22-28.4 50-40.8 76.8-16.8 36.8-30 52.4-48.8 52.4-10 0-16-9.6-16-28.8 0-36.6 20.4-87.8 44-87.8" fill="#0081FB"/></svg>